<?xml version="1.0" encoding="UTF-8" standalone="no"?>
<!DOCTYPE svg PUBLIC "-//W3C//DTD SVG 1.1//EN" "http://www.w3.org/Graphics/SVG/1.1/DTD/svg11.dtd">
<svg version="1.1" xmlns="http://www.w3.org/2000/svg" xmlns:dc="http://purl.org/dc/elements/1.1/" xmlns:xl="http://www.w3.org/1999/xlink" viewBox="338.2 803.8368 131.82728 120" width="131.82728" height="120">
  <defs/>
  <metadata> Produced by OmniGraffle 7.19.4\n2022-02-14 14:47:13 +0000</metadata>
  <g id="Canvas_2" stroke-dasharray="none" stroke-opacity="1" fill="none" fill-opacity="1" stroke="none">
    <title>Canvas 2</title>
    <g id="Canvas_2_Layer_2">
      <title>Layer 2</title>
      <g id="Graphic_166">
        <path d="M 338.2 908.8368 L 338.2 923.8368 C 352.15998 923.8368 365.00643 919.0692 375.2 911.0735 L 375.2 863.8368 L 375.2 816.6 C 365.00643 808.6043 352.15998 803.8368 338.2 803.8368 L 338.2 818.8368 C 350.9855 829.3005 359.2 845.5677 359.2 863.8368 C 359.2 882.1058 350.9855 898.373 338.2 908.8368 Z" fill="white"/>
      </g>
      <g id="Graphic_95">
        <path d="M 412.2 911.0735 L 412.2 863.9656 L 412.16667 863.8412 L 412.2 863.8604 L 412.2 863.8368 L 412.2 863.8219 L 412.16667 863.8412 L 412.2 863.7168 L 412.2 816.6 C 402.00643 808.6043 389.15998 803.8368 375.2 803.8368 L 375.2 816.6 C 389.20314 827.5839 398.2 844.6597 398.2 863.8368 C 398.2 883.0139 389.20314 900.0897 375.2 911.0735 L 375.2 911.0735 L 375.2 923.8368 C 389.15998 923.8368 402.00643 919.0692 412.2 911.0735 Z" fill="white"/>
      </g>
      <g id="Graphic_117">
        <path d="M 426.6124 832.9293 L 437.5571 809.4583 C 429.61683 805.7557 420.96203 803.8369 412.2009 803.8368 L 412.2 816.6196 C 417.9372 821.1247 422.83295 826.6529 426.6124 832.9293 Z M 412.2009 803.8368 C 412.2006 803.8368 412.2003 803.8368 412.2 803.8368 Z" fill="white"/>
      </g>
      <g id="Graphic_121">
        <path d="M 434.743 858.2925 L 470.0273 848.8381 C 467.75966 840.3752 463.66614 832.5117 458.0344 825.8 L 432.55 847.184 C 433.61657 850.7584 434.35894 854.4726 434.743 858.2925 Z" fill="white"/>
      </g>
      <g id="Graphic_123">
        <path d="M 426.6124 894.7443 L 437.5571 918.2152 C 429.61683 921.9179 420.96203 923.8366 412.2009 923.8368 L 412.2 911.0539 C 417.9372 906.5489 422.83295 901.0207 426.6124 894.7443 Z M 412.2009 923.8368 C 412.2006 923.8368 412.2003 923.8368 412.2 923.8368 Z" fill="white"/>
      </g>
      <g id="Graphic_122">
        <path d="M 434.743 869.8 L 470.0273 879.2544 C 467.75966 887.7173 463.66614 895.5809 458.0344 902.2925 L 432.55 880.9086 C 433.61657 877.3342 434.35894 873.6199 434.743 869.8 Z" fill="white"/>
      </g>
    </g>
  </g>
</svg>
